HIERARCHY
ROOT Hips
{
	OFFSET 0.00000 0.00000 0.00000
	CHANNELS 6 Xposition Yposition Zposition Zrotation Yrotation Xrotation 
	JOINT LHipJoint
	{
		OFFSET 0 0 0
		CHANNELS 3 Zrotation Yrotation Xrotation
		JOINT LeftUpLeg
		{
			OFFSET 1.44361 -1.63093 0.70831
			CHANNELS 3 Zrotation Yrotation Xrotation
			JOINT LeftLeg
			{
				OFFSET 2.20103 -6.04728 0.00000
				CHANNELS 3 Zrotation Yrotation Xrotation
				JOINT LeftFoot
				{
					OFFSET 2.54154 -6.98283 0.00000
					CHANNELS 3 Zrotation Yrotation Xrotation
					JOINT LeftToeBase
					{
						OFFSET 0.05971 -0.16406 1.77582
						CHANNELS 3 Zrotation Yrotation Xrotation
						End Site
						{
							OFFSET 0.00000 -0.00000 0.90832
						}
					}
				}
			}
		}
	}
	JOINT RHipJoint
	{
		OFFSET 0 0 0
		CHANNELS 3 Zrotation Yrotation Xrotation
		JOINT RightUpLeg
		{
			OFFSET -1.65838 -1.63093 0.70830
			CHANNELS 3 Zrotation Yrotation Xrotation
			JOINT RightLeg
			{
				OFFSET -2.26926 -6.23475 0.00000
				CHANNELS 3 Zrotation Yrotation Xrotation
				JOINT RightFoot
				{
					OFFSET -2.34808 -6.45129 0.00000
					CHANNELS 3 Zrotation Yrotation Xrotation
					JOINT RightToeBase
					{
						OFFSET -0.18633 -0.51195 1.68539
						CHANNELS 3 Zrotation Yrotation Xrotation
						End Site
						{
							OFFSET -0.00000 -0.00000 0.88927
						}
					}
				}
			}
		}
	}
	JOINT LowerBack
	{
		OFFSET 0 0 0
		CHANNELS 3 Zrotation Yrotation Xrotation
		JOINT Spine
		{
			OFFSET -0.10393 2.01691 0.06920
			CHANNELS 3 Zrotation Yrotation Xrotation
			JOINT Spine1
			{
				OFFSET 0.04092 2.01302 -0.05283
				CHANNELS 3 Zrotation Yrotation Xrotation
				JOINT Neck
				{
					OFFSET 0 0 0
					CHANNELS 3 Zrotation Yrotation Xrotation
					JOINT Neck1
					{
						OFFSET -0.02870 1.58978 -0.03113
						CHANNELS 3 Zrotation Yrotation Xrotation
						JOINT Head
						{
							OFFSET 0.11532 1.54326 -0.29195
							CHANNELS 3 Zrotation Yrotation Xrotation
							End Site
							{
								OFFSET 0.04056 1.59999 -0.09535
							}
						}
					}
				}
				JOINT LeftShoulder
				{
					OFFSET 0 0 0
					CHANNELS 3 Zrotation Yrotation Xrotation
					JOINT LeftArm
					{
						OFFSET 3.30641 1.15764 0.01104
						CHANNELS 3 Zrotation Yrotation Xrotation
						JOINT LeftForeArm
						{
							OFFSET 4.63208 -0.00000 0.00000
							CHANNELS 3 Zrotation Yrotation Xrotation
							JOINT LeftHand
							{
								OFFSET 3.41924 -0.00000 -0.00000
								CHANNELS 3 Zrotation Yrotation Xrotation
								JOINT LeftFingerBase
								{
									OFFSET 0 0 0
									CHANNELS 3 Zrotation Yrotation Xrotation
									JOINT LeftHandIndex1
									{
										OFFSET 0.62537 -0.00000 -0.00000
										CHANNELS 3 Zrotation Yrotation Xrotation
										End Site
										{
											OFFSET 0.50419 -0.00000 -0.00000
										}
									}
								}
								JOINT LThumb
								{
									OFFSET 0 0 0
									CHANNELS 3 Zrotation Yrotation Xrotation
									End Site
									{
										OFFSET 0.51189 -0.00000 0.51189
									}
								}
							}
						}
					}
				}
				JOINT RightShoulder
				{
					OFFSET 0 0 0
					CHANNELS 3 Zrotation Yrotation Xrotation
					JOINT RightArm
					{
						OFFSET -3.78081 1.02180 -0.16609
						CHANNELS 3 Zrotation Yrotation Xrotation
						JOINT RightForeArm
						{
							OFFSET -4.40640 -0.00000 -0.00000
							CHANNELS 3 Zrotation Yrotation Xrotation
							JOINT RightHand
							{
								OFFSET -3.44675 -0.00000 0.00000
								CHANNELS 3 Zrotation Yrotation Xrotation
								JOINT RightFingerBase
								{
									OFFSET 0 0 0
									CHANNELS 3 Zrotation Yrotation Xrotation
									JOINT RightHandIndex1
									{
										OFFSET -0.51367 -0.00000 -0.00000
										CHANNELS 3 Zrotation Yrotation Xrotation
										End Site
										{
											OFFSET -0.41414 -0.00000 -0.00000
										}
									}
								}
								JOINT RThumb
								{
									OFFSET 0 0 0
									CHANNELS 3 Zrotation Yrotation Xrotation
									End Site
									{
										OFFSET -0.42046 -0.00000 0.42046
									}
								}
							}
						}
					}
				}
			}
		}
	}
}
MOTION
Frames: 14
Frame Time: .0083333
8.0205 16.3187 -9.8936 8.0333 -7.5949 -12.8639 0.0000 0.0000 0.0000 12.4545 -10.3625 -108.0934 5.6159 14.0455 43.4201 39.8830 -9.1975 -171.6128 6.9443 -15.2848 -48.6633 0.0000 0.0000 0.0000 18.8250 3.8242 10.9507 -1.1425 -6.7877 19.0879 -1.0255 -0.2144 -19.2250 -0.4036 4.0786 -11.2979 0.9486 3.5433 10.6124 -2.2027 4.8020 9.1095 -3.1523 2.5393 3.8826 -0.9227 4.2353 -1.3499 1.4679 6.0906 40.0805 1.4585 2.7699 13.8048 0.0000 0.0000 0.0000 -75.9302 10.8152 10.8794 14.0889 -22.8617 -2.8626 -0.0000 -0.0000 18.7135 22.4304 -16.8886 -6.8383 -7.1250 0.0000 -0.0000 -3.5917 11.8240 2.7851 0.0000 0.0000 0.0000 72.7441 -5.5817 24.1445 -34.4511 44.4162 -14.4279 0.0000 -0.0000 -4.7814 -12.6107 -40.7684 8.3116 7.1250 -0.0000 -0.0000 33.4495 -68.7009 -19.8205
7.9959 16.3335 -9.9223 7.7367 -7.5081 -12.0508 0.0000 0.0000 0.0000 12.1345 -10.3571 -105.1470 6.0582 14.4845 45.2148 39.8876 -9.7342 -171.3947 6.5050 -14.9005 -46.9763 0.0000 0.0000 0.0000 19.0955 3.9259 10.1681 -1.1025 -6.6717 18.7464 -0.9941 -0.3097 -18.9628 -0.4642 4.3701 -12.1202 1.0362 3.4467 10.1484 -2.0816 4.6790 9.0299 -3.0383 2.4770 4.0371 -1.0776 4.2913 -1.7386 1.7105 6.1243 40.3842 1.6104 2.7810 14.0152 0.0000 0.0000 0.0000 -75.7060 10.5039 11.6907 14.5207 -23.4742 -3.0325 -0.0000 -0.0000 18.0072 22.7254 -17.4257 -7.1491 -7.1250 0.0000 -0.0000 -3.4349 11.2132 2.7063 0.0000 0.0000 0.0000 72.8350 -5.3858 24.1752 -34.0079 44.0906 -14.1185 0.0000 -0.0000 -4.6169 -12.9337 -40.6196 8.5033 7.1250 -0.0000 -0.0000 32.8544 -68.6843 -19.4276
7.9780 16.3475 -9.9333 8.1280 -7.0736 -11.0341 0.0000 0.0000 0.0000 11.0570 -10.7993 -102.0968 6.6301 15.0124 47.4612 39.9254 -10.4718 -171.5222 5.8489 -14.2803 -44.3721 0.0000 0.0000 0.0000 18.3026 3.6290 9.2728 -1.0142 -6.4072 17.9707 -0.9551 0.0271 -18.4691 -0.3530 3.8171 -10.5625 0.4558 3.3193 9.1593 -2.1600 4.4860 8.9684 -2.7246 2.3519 4.4583 -0.9280 4.2433 -2.0653 1.5652 6.0837 40.4527 1.5344 2.7616 14.1336 -0.0000 -0.0000 0.0000 -75.5456 10.2148 12.5018 14.9710 -24.1056 -3.2141 -0.0000 -0.0000 17.4732 22.9392 -17.8465 -7.3903 -7.1250 0.0000 -0.0000 -3.3260 10.7357 2.6528 -0.0000 -0.0000 0.0000 72.9383 -5.1682 24.1552 -33.4970 43.7086 -13.7643 0.0000 -0.0000 -4.7208 -13.4720 -40.4616 8.8365 7.1250 -0.0000 -0.0000 32.0094 -68.7269 -18.9196
7.9442 16.3612 -10.0089 7.9780 -6.8124 -9.9543 0.0000 0.0000 0.0000 10.1930 -10.8506 -98.3977 7.3860 15.6485 50.3196 39.9470 -10.8030 -171.6315 5.7187 -14.1501 -43.8421 0.0000 0.0000 0.0000 18.5425 4.2233 7.9674 -1.0016 -6.3687 17.8579 -0.9077 -0.4597 -18.1783 -0.2986 3.5137 -9.7123 0.1388 3.1868 9.0699 -2.0101 4.2829 8.7241 -2.3858 2.2228 4.1957 -0.9044 4.3102 -2.4652 1.4520 6.2272 40.5606 1.5184 2.8064 14.2787 0.0000 0.0000 0.0000 -75.5470 10.0404 13.2852 15.5191 -24.8642 -3.4412 -0.0000 -0.0000 17.1902 23.0237 -18.2096 -7.5645 -7.1250 0.0000 -0.0000 -3.2993 10.3361 2.6583 0.0000 0.0000 0.0000 72.9642 -4.9634 24.0498 -32.8558 43.2189 -13.3232 0.0000 -0.0000 -4.5979 -13.3890 -40.3330 8.7581 7.1250 -0.0000 -0.0000 31.8928 -68.5970 -18.7545
7.9242 16.3733 -10.0180 8.2412 -6.3771 -9.1548 0.0000 0.0000 0.0000 8.7963 -11.3183 -94.3139 8.2014 16.2654 53.2849 39.8894 -10.3129 -171.0998 6.7365 -15.1059 -47.8706 0.0000 0.0000 0.0000 17.9522 3.6832 7.2621 -0.9236 -6.1227 17.1408 -0.8646 -0.2723 -17.6759 -0.3631 3.8706 -10.7130 -0.3443 3.0231 8.3095 -1.9892 4.0547 8.7477 -2.0401 2.0813 4.5920 -1.1735 4.4490 -2.2726 1.4651 6.4554 40.3437 1.5826 2.8738 14.1150 0.0000 -0.0000 0.0000 -75.5352 9.7863 14.1402 16.0784 -25.6268 -3.6798 -0.0000 -0.0000 16.9765 22.9117 -18.2490 -7.5395 -7.1250 0.0000 -0.0000 -3.3756 10.3110 2.7218 0.0000 -0.0000 0.0000 73.1381 -4.8756 23.8443 -32.2065 42.7112 -12.8807 0.0000 -0.0000 -4.3489 -13.4701 -40.0037 8.7535 7.1250 -0.0000 -0.0000 31.2810 -68.3544 -18.2011
7.8913 16.3913 -10.0671 7.5916 -6.4658 -8.2025 0.0000 0.0000 0.0000 8.0218 -11.0141 -89.9426 9.1542 16.9059 56.6218 39.7934 -9.8035 -170.0459 8.2801 -16.3215 -53.5656 0.0000 0.0000 0.0000 18.8030 4.1512 6.1516 -0.9222 -6.1181 17.1276 -0.8310 -0.5589 -17.4378 -0.4352 4.2334 -11.7344 -0.1339 2.9448 8.0790 -1.6234 3.9493 8.6165 -1.7641 2.0253 4.5603 -1.3980 4.4696 -2.5530 1.7240 6.4410 40.7246 1.7489 2.8545 14.3393 0.0000 0.0000 0.0000 -75.6321 9.2928 14.8982 16.4989 -26.1925 -3.8636 -0.0000 -0.0000 16.7681 22.8472 -18.2440 -7.5141 -7.1250 0.0000 -0.0000 -3.4174 10.3256 2.7546 0.0000 0.0000 0.0000 73.2583 -4.9894 23.7041 -31.7174 42.3207 -12.5502 0.0000 -0.0000 -4.1092 -13.7431 -39.5894 8.8589 7.1250 -0.0000 -0.0000 30.3426 -68.0990 -17.4449
7.8677 16.4070 -10.0741 7.8633 -6.3654 -7.4350 0.0000 0.0000 0.0000 6.4571 -11.1011 -85.0753 10.4071 17.6325 60.8407 39.9430 -11.4216 -171.1811 6.6492 -15.0292 -47.5347 0.0000 0.0000 0.0000 18.3742 4.1005 5.4133 -0.8828 -5.9896 16.7543 -0.8056 -0.4734 -17.1389 -0.4820 4.4519 -12.3516 -0.6729 2.8831 7.4621 -1.5577 3.8532 8.5683 -1.3611 1.9438 4.8057 -1.6795 4.4010 -2.7076 1.9146 6.3134 40.8005 1.8694 2.7767 14.3908 0.0000 -0.0000 0.0000 -75.8760 9.6649 15.7377 17.3951 -27.3757 -4.2674 -0.0000 -0.0000 16.3596 22.8097 -18.5038 -7.6025 -7.1250 0.0000 -0.0000 -3.4626 10.0552 2.8101 0.0000 -0.0000 0.0000 73.5117 -5.5263 23.5037 -31.5168 42.1586 -12.4153 0.0000 -0.0000 -3.7348 -13.2419 -39.8288 8.5712 7.1250 -0.0000 -0.0000 31.2601 -68.1413 -18.0408
7.8482 16.4193 -10.0789 8.1577 -6.1093 -6.7300 0.0000 0.0000 0.0000 4.5113 -11.3519 -80.1490 11.7848 18.2982 65.3051 39.9592 -12.0321 -171.0050 7.0153 -15.3447 -48.9321 0.0000 0.0000 0.0000 17.8923 3.9204 4.8427 -0.8293 -5.8097 16.2334 -0.7754 -0.4880 -16.8239 -0.5056 4.5580 -12.6520 -0.9174 2.7896 6.9181 -1.7080 3.7387 8.5609 -1.3494 1.8766 5.0935 -1.7117 4.4254 -3.1067 2.1886 6.2611 40.7959 1.9954 2.7775 14.4606 -0.0000 -0.0000 0.0000 -75.6029 9.8451 17.0276 18.2420 -28.4660 -4.6640 -0.0000 -0.0000 15.4867 22.8863 -18.6704 -7.6961 -7.1250 0.0000 -0.0000 -3.4262 9.8667 2.7935 -0.0000 -0.0000 0.0000 74.2360 -6.1047 23.0685 -31.3661 42.0359 -12.3142 0.0000 -0.0000 -3.5240 -13.1011 -39.8497 8.4818 7.1250 -0.0000 -0.0000 31.4462 -68.1146 -18.1377
7.8218 16.4370 -10.1046 7.3526 -5.8061 -5.7632 0.0000 0.0000 0.0000 3.7630 -11.3821 -75.5053 13.2573 18.8731 69.9229 39.9804 -12.5949 -170.9052 7.3589 -15.6268 -50.2189 0.0000 0.0000 0.0000 18.8218 4.0227 4.0409 -0.7840 -5.6526 15.7796 -0.7281 -0.9501 -16.4911 -0.5698 4.8344 -13.4369 -0.0640 2.5938 6.5714 -1.5854 3.5035 8.4071 -1.6776 1.8021 5.1610 -1.3948 4.5521 -2.9022 1.8960 6.4876 40.5974 1.8313 2.8915 14.3421 0.0000 0.0000 0.0000 -75.2255 9.6853 18.2049 18.7876 -29.1539 -4.9269 -0.0000 -0.0000 14.5987 23.1867 -18.9005 -7.8991 -7.1250 0.0000 -0.0000 -3.2500 9.5775 2.6683 0.0000 0.0000 0.0000 75.0056 -6.5457 22.6199 -30.9273 41.6751 -12.0215 0.0000 -0.0000 -3.2701 -13.5299 -39.3887 8.6819 7.1250 -0.0000 -0.0000 30.2754 -67.8677 -17.2480
7.7986 16.4540 -10.1172 7.5081 -5.6579 -5.0760 0.0000 0.0000 0.0000 1.9665 -11.3448 -70.2777 14.9969 19.3890 75.2273 40.1243 -13.9173 -171.7991 6.6010 -14.9864 -47.3485 0.0000 0.0000 0.0000 18.6344 4.2267 3.4710 -0.7430 -5.5064 15.3587 -0.6809 -1.3301 -16.1244 -0.7179 5.4144 -15.0944 -0.3323 2.5008 6.3953 -1.5762 3.3700 8.1748 -1.5138 1.7184 4.9894 -1.3424 4.5570 -2.4627 1.6808 6.5441 40.5252 1.7217 2.9030 14.2240 0.0000 0.0000 0.0000 -75.3337 10.0193 18.7975 19.3879 -29.8978 -5.2228 -0.0000 -0.0000 14.2129 23.6479 -19.3424 -8.2522 -7.1250 0.0000 -0.0000 -2.9899 9.0355 2.4868 0.0000 0.0000 0.0000 75.4946 -7.0861 22.2854 -30.2155 41.0774 -11.5510 0.0000 -0.0000 -2.8936 -13.6168 -39.2185 8.7078 7.1250 -0.0000 -0.0000 29.9272 -67.7529 -16.9591
7.7885 16.4642 -10.0835 8.1759 -5.4639 -4.3444 0.0000 0.0000 0.0000 -0.4174 -11.5255 -64.9362 17.5617 19.8569 82.8546 36.4420 6.3914 -141.7615 6.8158 -15.1748 -48.1742 0.0000 0.0000 0.0000 17.6667 3.9021 2.8888 -0.7002 -5.3485 14.9053 -0.6582 -1.1440 -15.7818 -0.9808 6.3041 -17.6694 -1.0649 2.4021 5.5675 -1.6735 3.2410 8.0701 -1.1701 1.6146 5.3033 -1.7149 4.4195 -2.7843 1.9762 6.2994 40.6593 1.8954 2.7708 14.3328 -0.0000 -0.0000 0.0000 -75.6279 10.3262 19.0645 19.9922 -30.6330 -5.5274 -0.0000 -0.0000 13.9684 23.8798 -19.5365 -8.4213 -7.1250 0.0000 -0.0000 -2.8581 8.7921 2.3907 -0.0000 -0.0000 0.0000 75.9833 -7.6399 21.9302 -29.5685 40.5207 -11.1282 0.0000 -0.0000 -2.5665 -13.7286 -39.1550 8.7692 7.1250 -0.0000 -0.0000 29.7111 -67.7344 -16.8159
7.7813 16.4674 -10.0508 8.3270 -5.3650 -3.4730 0.0000 0.0000 0.0000 -2.1423 -11.5178 -59.9554 19.7558 19.9986 89.2860 29.2516 25.5508 -109.7329 6.9948 -15.3275 -48.8545 0.0000 0.0000 0.0000 17.3048 3.6753 2.0559 -0.6847 -5.2905 14.7391 -0.6552 -0.7711 -15.5905 -1.1731 6.8748 -19.3449 -1.2662 2.3004 4.8135 -1.6603 3.1179 7.8778 -1.0151 1.5393 5.5092 -1.9348 4.3605 -3.0935 2.4113 6.0922 40.7572 2.1025 2.6956 14.4210 -0.0000 0.0000 0.0000 -75.9772 10.6811 19.1217 20.5773 -31.3316 -5.8286 -0.0000 -0.0000 13.7362 23.9251 -19.3780 -8.3742 -7.1250 0.0000 -0.0000 -2.8141 8.9540 2.3448 -0.0000 0.0000 0.0000 76.5817 -8.4214 21.5788 -29.2099 40.2065 -10.8959 0.0000 -0.0000 -2.3047 -14.0669 -38.8810 8.9385 7.1250 -0.0000 -0.0000 28.9381 -67.6073 -16.2670
7.7742 16.4674 -10.0298 7.9838 -5.5046 -2.6240 0.0000 0.0000 0.0000 -3.1504 -11.1603 -55.2533 19.7269 19.9982 89.2014 7.9076 36.5351 -69.2889 7.0941 -15.4106 -49.2294 0.0000 0.0000 0.0000 17.5884 3.8120 1.2334 -0.6784 -5.2665 14.6703 -0.6487 -0.4493 -15.3873 -1.1995 6.9491 -19.5647 -1.0121 2.2435 4.4753 -1.4961 3.0377 7.5011 -0.9795 1.5077 5.2999 -1.7781 4.3925 -2.9851 2.1344 6.2203 41.1389 1.9878 2.7321 14.6066 -0.0000 -0.0000 0.0000 -76.4685 11.2430 18.9763 21.0055 -31.8348 -6.0528 -0.0000 -0.0000 13.6650 24.2468 -19.5670 -8.5780 -7.1250 0.0000 -0.0000 -2.6245 8.7013 2.1996 -0.0000 -0.0000 0.0000 77.0635 -9.5032 21.2927 -29.0131 40.0323 -10.7691 0.0000 -0.0000 -2.1177 -13.9680 -38.8250 8.8635 7.1250 -0.0000 -0.0000 28.9683 -67.5305 -16.2354
7.7713 16.4719 -9.9951 7.7256 -5.5569 -1.7625 0.0000 0.0000 0.0000 -4.2379 -10.9171 -50.6273 17.4802 19.8471 82.6146 -3.1685 31.8782 -25.8591 7.0196 -15.3483 -48.9483 0.0000 0.0000 0.0000 17.7199 3.7613 0.5294 -0.6528 -5.1682 14.3890 -0.6351 -0.0744 -15.0877 -1.1084 6.6889 -18.7970 -0.8298 2.1394 3.7138 -1.3284 2.9070 7.3734 -0.8794 1.4447 5.5924 -1.5811 4.4067 -3.2541 1.7462 6.3631 41.4164 1.8308 2.7643 14.8351 -0.0000 0.0000 0.0000 -77.0119 11.0963 18.6370 20.9823 -31.8077 -6.0406 -0.0000 -0.0000 13.5477 24.5532 -20.1752 -8.9541 -7.1250 0.0000 -0.0000 -2.4874 8.0003 2.1190 -0.0000 0.0000 0.0000 77.5201 -10.1837 20.8168 -28.8232 39.8631 -10.6472 0.0000 -0.0000 -1.6967 -13.4257 -38.8582 8.5176 7.1250 -0.0000 -0.0000 29.6144 -67.3944 -16.5325
